<svg width="285" height="166" viewBox="0 0 285 166" fill="none" xmlns="http://www.w3.org/2000/svg">
<path d="M39.3397 63.0674V74.2766L0.445312 95.9104V84.7012L39.3397 63.0674Z" fill="#3FA9F5"/>
<path d="M59.4238 51.9696L151.356 0.855469V12.0647L59.4238 63.1789V51.9696Z" fill="#3FA9F5"/>
<path d="M41.4609 85.2608V96.47L80.3554 74.8362V63.627L41.4609 85.2608Z" fill="#3FA9F5"/>
<path d="M80.3554 85.8213V97.0305L41.4609 118.664V107.455L80.3554 85.8213Z" fill="#3FA9F5"/>
<path d="M80.3555 118.105V106.896L119.391 85.2617V96.471L80.3555 118.105Z" fill="#3FA9F5"/>
<path d="M120.383 41.4335V52.6427L172.431 23.7229V12.5137L120.383 41.4335Z" fill="#3FA9F5"/>
<path d="M192.372 23.6104V34.8196L159.418 53.2027V41.9935L192.372 23.6104Z" fill="#3FA9F5"/>
<path d="M192.371 44.6836V55.8928L178.369 63.7393V52.5301L192.371 44.6836Z" fill="#3FA9F5"/>
<path d="M159.419 85.2617L139.477 96.3589V107.568L159.419 96.471V85.2617Z" fill="#3FA9F5"/>
<path d="M179.361 74.1644V85.3736L212.457 66.9905V55.7812L179.361 74.1644Z" fill="#3FA9F5"/>
<path d="M232.398 66.8779V78.0872L159.418 118.665V107.455L232.398 66.8779Z" fill="#3FA9F5"/>
<path d="M277.374 70.8018V82.011L185.441 133.125V121.916L277.374 70.8018Z" fill="#3FA9F5"/>
<path d="M165.359 144.11V132.9L126.465 154.646V165.856L165.359 144.11Z" fill="#3FA9F5"/>
<path d="M154.891 2.81738V14.0266L277.373 82.0106V70.8014L154.891 2.81738Z" fill="#6DB8F3"/>
<path d="M178.37 63.7391V52.5298L159.418 41.9932V53.2024L178.37 63.7391Z" fill="#6DB8F3"/>
<path d="M179.359 74.1641L140.465 52.5303V63.7395L179.359 85.3733V74.1641Z" fill="#6DB8F3"/>
<path d="M139.475 85.3733V74.1641L100.439 52.5303V63.7395L139.475 85.3733Z" fill="#6DB8F3"/>
<path d="M122.926 87.1661L83.8906 65.5322V76.7415L122.926 98.3753V87.1661Z" fill="#6DB8F3"/>
<path d="M80.3555 106.896L120.381 129.09V140.299L80.3555 118.105V106.896Z" fill="#6DB8F3"/>
<path d="M165.358 132.9V144.11L102.872 109.54L102.844 98.376L165.358 132.9Z" fill="#6DB8F3"/>
<path d="M159.418 107.456L185.442 121.916V133.125L159.418 118.665V107.456Z" fill="#6DB8F3"/>
<path d="M126.463 154.647V165.856L0.445312 95.9104V84.7012L126.463 154.647Z" fill="#6DB8F3"/>
<path d="M46.412 63.0674V74.2766L7.51758 95.9104V84.7012L46.412 63.0674Z" fill="#3FA9F5"/>
<path d="M66.4961 51.9699L154.893 2.81738V14.0266L66.4961 63.1791V51.9699Z" fill="#3FA9F5"/>
<path d="M48.5332 85.2605V96.4697L83.8918 76.7415V65.5322L48.5332 85.2605Z" fill="#3FA9F5"/>
<path d="M87.4276 85.8213V97.0305L48.5332 118.664V107.455L87.4276 85.8213Z" fill="#3FA9F5"/>
<path d="M106.521 107.568V96.3589L126.464 85.2617V96.471L106.521 107.568Z" fill="#3FA9F5"/>
<path d="M87.4277 118.104V106.895L102.844 98.376L102.872 109.54L87.4277 118.104Z" fill="#3FA9F5"/>
<path d="M127.455 41.4328V52.6421L175.939 25.7063L175.967 14.4746L127.455 41.4328Z" fill="#3FA9F5"/>
<path d="M195.909 25.583V36.7922L166.49 53.2026V41.9933L195.909 25.583Z" fill="#3FA9F5"/>
<path d="M199.443 44.6836V55.8928L185.441 63.7393V52.5301L199.443 44.6836Z" fill="#3FA9F5"/>
<path d="M166.491 85.2617L146.549 96.3589V107.568L166.491 96.471V85.2617Z" fill="#3FA9F5"/>
<path d="M186.434 74.1644V85.3736L219.529 66.9905V55.7812L186.434 74.1644Z" fill="#3FA9F5"/>
<path d="M239.47 66.8779V78.0872L166.49 118.665V107.455L239.47 66.8779Z" fill="#3FA9F5"/>
<path d="M284.446 70.8018V82.011L192.514 133.125V121.916L284.446 70.8018Z" fill="#3FA9F5"/>
<path d="M172.43 144.11V132.9L133.535 154.646V165.856L172.43 144.11Z" fill="#3FA9F5"/>
<path d="M185.442 63.7391V52.5298L166.49 41.9932V53.2024L185.442 63.7391Z" fill="#6DB8F3"/>
<path d="M186.432 74.1641L147.537 52.5303V63.7395L186.432 85.3733V74.1641Z" fill="#6DB8F3"/>
<path d="M146.548 85.3733V74.1641L107.512 52.5303V63.7395L146.548 85.3733Z" fill="#6DB8F3"/>
<path d="M87.4277 106.896L127.454 129.09V140.299L87.4277 118.105V106.896Z" fill="#6DB8F3"/>
<path d="M172.429 132.901L163.009 138.169L106.379 107.568V96.3584L172.429 132.901Z" fill="#6DB8F3"/>
<path d="M166.49 107.456L192.514 121.916V133.125L166.49 118.665V107.456Z" fill="#6DB8F3"/>
<path d="M133.536 154.647V165.856L7.51758 95.9104V84.7012L133.536 154.647Z" fill="#6DB8F3"/>
<path d="M39.3397 63.0674H46.4114L7.51703 84.7012L129.999 152.629L165.358 132.901L102.844 98.3765L87.4274 106.896L127.453 129.202H120.382L80.3557 106.896L119.392 85.2617L83.8915 65.5334L48.533 85.2617H41.4612L80.3557 63.6278H87.4274L126.463 85.2617L106.521 96.3588L172.429 132.901L133.535 154.647H126.463L0.445312 84.7012L39.3397 63.0674Z" fill="#94CBF3"/>
<path d="M80.3547 85.8213H87.4264L48.532 107.455L44.9961 105.437L80.3547 85.8213Z" fill="#94CBF3"/>
<path d="M100.439 52.5303H107.511L146.547 74.1641H139.475L100.439 52.5303Z" fill="#94CBF3"/>
<path d="M159.419 85.2617H166.491L146.548 96.3589H139.477L159.419 85.2617Z" fill="#94CBF3"/>
<path d="M140.465 52.5303H147.537L183.037 72.1464L212.455 55.781H219.527L186.431 74.1641H179.359L140.465 52.5303Z" fill="#94CBF3"/>
<path d="M192.372 44.6836H199.444L185.442 52.5301H178.37L159.418 41.9934L192.372 23.6102L175.966 14.4747L127.454 41.4329H120.382L172.43 12.5131L154.892 2.81709L66.4955 51.9696H59.4238L151.356 0.855469H158.428L284.446 70.8011L192.513 121.915H185.442L159.418 107.455L232.2 66.99H239.47L166.49 107.567L189.006 119.965L277.233 70.9468L195.908 25.583L166.617 41.9934L181.821 50.5236L192.372 44.6836Z" fill="#94CBF3"/>
<path d="M66.4955 51.9688H59.4238V63.178H66.4955V51.9688Z" fill="#86C3F3"/>
<path d="M146.546 74.1631H139.475V85.3723H146.546V74.1631Z" fill="#86C3F3"/>
<path d="M41.4609 85.2607V96.6381L48.5327 96.47V85.2607H41.4609Z" fill="#86C3F3"/>
<path d="M127.453 129.201H120.381V140.298H127.453V129.201Z" fill="#86C3F3"/>
<path d="M133.535 154.646H126.463V165.856H133.535V154.646Z" fill="#86C3F3"/>
<path d="M139.475 96.3584L139.404 107.848L146.547 107.568V96.3584H139.475Z" fill="#86C3F3"/>
<path d="M192.513 121.915H185.441V133.124H192.513V121.915Z" fill="#86C3F3"/>
<path d="M186.431 74.1631H179.359V85.3723H186.431V74.1631Z" fill="#86C3F3"/>
<path d="M185.441 52.5293H178.369V63.7385H185.441V52.5293Z" fill="#86C3F3"/>
<path d="M127.453 41.4326H120.381V52.6419H127.453V41.4326Z" fill="#86C3F3"/>
</svg>
